<?xml version="1.0" encoding="UTF-8"?><!DOCTYPE svg PUBLIC "-//W3C//DTD SVG 1.1//EN" "http://www.w3.org/Graphics/SVG/1.1/DTD/svg11.dtd"><svg xmlns="http://www.w3.org/2000/svg" xmlns:xlink="http://www.w3.org/1999/xlink"><symbol id="svg-&#x441;amera" viewBox="0 0 39 39">
    <!-- Generator: Sketch 46.2 (44496) - http://www.bohemiancoding.com/sketch -->
    <title>&#x441;am</title>
    <desc>Created with Sketch.</desc>
    
    <g id="design" stroke="none" stroke-width="1" fill="none" fill-rule="evenodd">
        <g id="&#x432;&#x44B;&#x43F;&#x43E;&#x43B;&#x43D;&#x435;&#x43D;&#x438;&#x435;" transform="translate(-213.000000, -15.000000)">
            <g id="&#x441;am" transform="translate(213.000000, 15.000000)">
                <circle id="Oval-3-Copy-2" fill="#24344A" cx="19.5" cy="19.5" r="19.5"/>
                <path d="M28.6178652,13.3491803 C28.5357207,13.3180328 28.4567305,13.3023934 28.3808281,13.3023934 C28.2101641,13.3023934 28.0681211,13.3618033 27.9542676,13.4802951 L24.133916,17.2434426 L24.133916,15.698918 C24.133916,14.9561967 23.8668965,14.3213115 23.3328574,13.7939344 C22.7987852,13.266623 22.1559063,13.0029508 21.4036895,13.0029508 L14.7300937,13.0029508 C13.9781094,13.0029508 13.3350313,13.266623 12.8009258,13.7939344 C12.2670195,14.3213115 12,14.9561967 12,15.698918 L12,22.2889508 C12,23.0316066 12.2670195,23.666459 12.800959,24.1938033 C13.3350645,24.7211475 13.9781426,24.9848197 14.730127,24.9848197 L21.4037559,24.9848197 C22.1559395,24.9848197 22.7988516,24.7211475 23.3329238,24.1938033 C23.8669629,23.666459 24.1339824,23.0316393 24.1339824,22.2889508 L24.1339824,20.7349508 L27.954334,24.5074426 C28.0681875,24.6259016 28.2102305,24.6852787 28.3808945,24.6852787 C28.4567969,24.6852787 28.5357871,24.6696721 28.6179316,24.6385902 C28.8645312,24.532459 28.9876816,24.3484262 28.9876816,24.0863279 L28.9876816,13.9016066 C28.987582,13.639377 28.8644316,13.4553115 28.6178652,13.3491803 Z" id="Shape" fill="#FFFFFF" fill-rule="nonzero"/>
            </g>
        </g>
    </g>
</symbol></svg>