<?xml version="1.0" encoding="UTF-8"?>
<svg width="111px" height="35px" viewBox="0 0 111 35" version="1.1" xmlns="http://www.w3.org/2000/svg" xmlns:xlink="http://www.w3.org/1999/xlink">
    <!-- Generator: Sketch 49.3 (51167) - http://www.bohemiancoding.com/sketch -->
    <title>als-logo</title>
    <desc>Created with Sketch.</desc>
    <defs></defs>
    <g id="Page-1" stroke="none" stroke-width="1" fill="none" fill-rule="evenodd" fill-opacity="0.5">
        <g id="main-mobile" transform="translate(-20.000000, -5108.000000)" fill="#000000">
            <g id="Group-56" transform="translate(0.000000, 4705.000000)">
                <g id="Group-55" transform="translate(20.000000, 366.000000)">
                    <g id="Group-17" transform="translate(0.000000, 37.000000)">
                        <g id="als-logo">
                            <path d="M99,1 L99,33 L1,33 L1,1 L99,1 Z M100,0 L0,0 L0,34 L100,34 L100,0 Z" id="Shape" fill-rule="nonzero"></path>
                            <path d="M80.649,22.75 L80.048,27.011 L79.799,27.011 L79.462,22.875 L78.811,4 L77,4 L78.499,30 L81.118,30 L83.6,4 L81.528,4 L80.649,22.75 Z M67.569,4 L64,4 L64,30 L67.439,30 C69.415,30 70,28.84 70,27 L70,6.766 C70,4.924 69.545,4 67.569,4 Z M68,27.462 C68,28.785 68.06,29 67,29 L66,29 L66,5 L67,5 C68.06,5 68,5.216 68,6.537 L68,27.462 Z M72,30 L76,30 L76,29 L74,29 L74,16 L75.341,16 L75.341,15 L74,15 L74,5 L76,5 L76,4 L72,4 L72,30 Z M18,4 L16,30 L17.525,30 L18.261,22 L20,22 L20.226,30 L22.302,30 L20.85,4 L18,4 Z M18.333,21 L18.932,9.255 L19.23,6.099 L19.8,6.099 L20,9.255 L20,21 L18.333,21 Z M43,4 L41,4 L41,30 L45,30 L45,29 L43,29 L43,4 Z M46,30 L50,30 L50,29 L48,29 L48,16 L49.326,16 L49.326,15 L48,15 L48,5 L49.989,5 L49.989,4 L46,4 L46,30 Z M30.713,5 L32.379,5 L32.379,30 L34.24,30 L34.24,5 L35.841,5 L35.841,4 L30.713,4 L30.713,5 Z M36.617,27.939 C35.948,27.939 35.411,28.472 35.411,29.13 C35.411,29.793 35.948,30.323 36.617,30.323 C37.284,30.323 37.822,29.793 37.822,29.13 C37.822,28.473 37.285,27.939 36.617,27.939 Z M55.709,4 L51,4 L51,30 L54.94,30 C56.189,30 56.985,28.998 57,27.906 L57,17.631 C57,16.377 56.781,16.063 56.334,15.81 L56.334,15.246 C56.885,14.97 57,14.689 57,13.812 L57,5.582 C57,4.66 56.652,4 55.709,4 Z M55,28.104 C54.988,28.793 54.943,28.936 54.39,28.936 L52.987,28.936 L53,16 L54.406,16 C54.957,16 55,16.301 55,17.422 L55,28.104 Z M55,13.641 C55,14.732 55.028,14.944 54.449,15 L53,15 L52.986,5 L54.433,5 C54.899,5 55,5.216 55,5.792 L55,13.641 Z M27.594,4 L24,4 L24,30 L26,30 L26,18 L27.331,18 C27.941,18 28,18.282 28,19 L28,30 L30,30 L29.989,20.11 C29.989,18.685 30.062,18.315 29.265,17.851 L29.265,17.248 C29.794,17.191 30,17.123 30,15.715 L30,7 C30,5.158 29.554,4 27.594,4 Z M28,16 C28,16.805 28.019,17 27.364,17 L26,17 L26,5 L26.839,4.984 C27.883,5 28,5.677 28,7 L28,16 Z M59,30 L63,30 L63,29 L61,29 L61,16 L62.336,16 L62.336,15 L61,15 L61,5 L63,5 L63,4 L59,4 L59,30 Z" id="Shape" fill-rule="nonzero"></path>
                            <path d="M96.8861516,26.2608484 C97.8761516,25.2348484 99.8471516,23.5068484 99.8471516,21.9408484 C99.8471516,21.2028484 99.2891516,20.8608484 98.7491516,20.8608484 C98.2631516,20.8608484 97.7501516,21.1218484 97.3631516,21.4368484 L96.9581516,20.9418484 C97.4261516,20.4198484 98.1911516,20.1138484 98.8751516,20.1138484 C99.8561516,20.1138484 100.783152,20.6808484 100.783152,21.9408484 C100.783152,23.4798484 99.0101516,25.1808484 97.9931516,26.1168484 L100.873152,26.1168484 L100.873152,26.9088484 L96.8861516,26.9088484 L96.8861516,26.2608484 Z M107.116222,23.5878484 C107.116222,25.0998484 106.594222,27.0618484 104.731222,27.0618484 C102.868222,27.0618484 102.346222,25.0998484 102.346222,23.5878484 C102.346222,22.0758484 102.868222,20.1138484 104.731222,20.1138484 C106.594222,20.1138484 107.116222,22.0758484 107.116222,23.5878484 Z M106.234222,23.5878484 C106.234222,22.6248484 106.000222,20.7888484 104.731222,20.7888484 C103.462222,20.7888484 103.228222,22.6248484 103.228222,23.5878484 C103.228222,24.5508484 103.462222,26.3958484 104.731222,26.3958484 C106.000222,26.3958484 106.234222,24.5508484 106.234222,23.5878484 Z M108.69376,21.7968484 L108.53176,21.4188484 L110.47576,20.2668484 L111.04276,20.2668484 L111.04276,26.2518484 L112.23976,26.4678484 L112.23976,26.9088484 L108.95476,26.9088484 L108.95476,26.4678484 L110.15176,26.2518484 L110.15176,21.2568484 C110.16076,21.2478484 108.69376,21.7968484 108.69376,21.7968484 Z M118.061848,25.2618484 C118.061848,26.3958484 116.990848,27.0618484 115.865848,27.0618484 C114.695848,27.0618484 113.705848,26.4318484 113.705848,25.2618484 C113.705848,24.3888484 114.470848,23.7588484 115.145848,23.4528484 C114.452848,23.0928484 113.885848,22.6518484 113.885848,21.7428484 C113.885848,20.6988484 114.830848,20.1138484 115.865848,20.1138484 C116.918848,20.1138484 117.881848,20.6628484 117.881848,21.7428484 C117.881848,22.6428484 117.287848,23.0748484 116.594848,23.4168484 C117.314848,23.7678484 118.061848,24.3168484 118.061848,25.2618484 Z M117.098848,21.7518484 C117.098848,21.1308484 116.468848,20.7708484 115.865848,20.7708484 C115.235848,20.7708484 114.668848,21.0948484 114.668848,21.7518484 C114.668848,22.4268484 115.397848,22.8318484 115.955848,23.0838484 C116.531848,22.7868484 117.098848,22.4808484 117.098848,21.7518484 Z M117.278848,25.2438484 C117.278848,24.5058484 116.396848,24.0828484 115.811848,23.7948484 C115.190848,24.0918484 114.497848,24.4788484 114.497848,25.2438484 C114.497848,25.9818484 115.145848,26.4048484 115.865848,26.4048484 C116.585848,26.4048484 117.278848,25.9908484 117.278848,25.2438484 Z" id="2018" transform="translate(107.474000, 23.587848) rotate(-90.000000) translate(-107.474000, -23.587848) "></path>
                        </g>
                    </g>
                </g>
            </g>
        </g>
    </g>
</svg>