<?xml version="1.0" encoding="UTF-8"?>
<svg width="100px" height="45px" viewBox="0 0 100 45" version="1.1" xmlns="http://www.w3.org/2000/svg" xmlns:xlink="http://www.w3.org/1999/xlink">
    <!-- Generator: Sketch 49.3 (51167) - http://www.bohemiancoding.com/sketch -->
    <title>als-logo</title>
    <desc>Created with Sketch.</desc>
    <defs></defs>
    <g id="Page-1" stroke="none" stroke-width="1" fill="none" fill-rule="evenodd" fill-opacity="0.5">
        <g id="main1" transform="translate(-873.000000, -5975.000000)" fill="#000000">
            <g id="Group-4" transform="translate(0.000000, 5498.000000)">
                <g id="Group-17" transform="translate(873.000000, 475.000000)">
                    <g id="als-logo" transform="translate(0.000000, 2.000000)">
                        <path d="M99,1 L99,33 L1,33 L1,1 L99,1 Z M100,0 L0,0 L0,34 L100,34 L100,0 Z" id="Shape" fill-rule="nonzero"></path>
                        <path d="M80.649,22.75 L80.048,27.011 L79.799,27.011 L79.462,22.875 L78.811,4 L77,4 L78.499,30 L81.118,30 L83.6,4 L81.528,4 L80.649,22.75 Z M67.569,4 L64,4 L64,30 L67.439,30 C69.415,30 70,28.84 70,27 L70,6.766 C70,4.924 69.545,4 67.569,4 Z M68,27.462 C68,28.785 68.06,29 67,29 L66,29 L66,5 L67,5 C68.06,5 68,5.216 68,6.537 L68,27.462 Z M72,30 L76,30 L76,29 L74,29 L74,16 L75.341,16 L75.341,15 L74,15 L74,5 L76,5 L76,4 L72,4 L72,30 Z M18,4 L16,30 L17.525,30 L18.261,22 L20,22 L20.226,30 L22.302,30 L20.85,4 L18,4 Z M18.333,21 L18.932,9.255 L19.23,6.099 L19.8,6.099 L20,9.255 L20,21 L18.333,21 Z M43,4 L41,4 L41,30 L45,30 L45,29 L43,29 L43,4 Z M46,30 L50,30 L50,29 L48,29 L48,16 L49.326,16 L49.326,15 L48,15 L48,5 L49.989,5 L49.989,4 L46,4 L46,30 Z M30.713,5 L32.379,5 L32.379,30 L34.24,30 L34.24,5 L35.841,5 L35.841,4 L30.713,4 L30.713,5 Z M36.617,27.939 C35.948,27.939 35.411,28.472 35.411,29.13 C35.411,29.793 35.948,30.323 36.617,30.323 C37.284,30.323 37.822,29.793 37.822,29.13 C37.822,28.473 37.285,27.939 36.617,27.939 Z M55.709,4 L51,4 L51,30 L54.94,30 C56.189,30 56.985,28.998 57,27.906 L57,17.631 C57,16.377 56.781,16.063 56.334,15.81 L56.334,15.246 C56.885,14.97 57,14.689 57,13.812 L57,5.582 C57,4.66 56.652,4 55.709,4 Z M55,28.104 C54.988,28.793 54.943,28.936 54.39,28.936 L52.987,28.936 L53,16 L54.406,16 C54.957,16 55,16.301 55,17.422 L55,28.104 Z M55,13.641 C55,14.732 55.028,14.944 54.449,15 L53,15 L52.986,5 L54.433,5 C54.899,5 55,5.216 55,5.792 L55,13.641 Z M27.594,4 L24,4 L24,30 L26,30 L26,18 L27.331,18 C27.941,18 28,18.282 28,19 L28,30 L30,30 L29.989,20.11 C29.989,18.685 30.062,18.315 29.265,17.851 L29.265,17.248 C29.794,17.191 30,17.123 30,15.715 L30,7 C30,5.158 29.554,4 27.594,4 Z M28,16 C28,16.805 28.019,17 27.364,17 L26,17 L26,5 L26.839,4.984 C27.883,5 28,5.677 28,7 L28,16 Z M59,30 L63,30 L63,29 L61,29 L61,16 L62.336,16 L62.336,15 L61,15 L61,5 L63,5 L63,4 L59,4 L59,30 Z" id="Shape" fill-rule="nonzero"></path>
                        <path d="M0.540801514,44.195641 C1.53080151,43.169641 3.50180151,41.441641 3.50180151,39.875641 C3.50180151,39.137641 2.94380151,38.795641 2.40380151,38.795641 C1.91780151,38.795641 1.40480151,39.056641 1.01780151,39.371641 L0.612801514,38.876641 C1.08080151,38.354641 1.84580151,38.048641 2.52980151,38.048641 C3.51080151,38.048641 4.43780151,38.615641 4.43780151,39.875641 C4.43780151,41.414641 2.66480151,43.115641 1.64780151,44.051641 L4.52780151,44.051641 L4.52780151,44.843641 L0.540801514,44.843641 L0.540801514,44.195641 Z M10.7708724,41.522641 C10.7708724,43.034641 10.2488724,44.996641 8.38587239,44.996641 C6.52287239,44.996641 6.00087239,43.034641 6.00087239,41.522641 C6.00087239,40.010641 6.52287239,38.048641 8.38587239,38.048641 C10.2488724,38.048641 10.7708724,40.010641 10.7708724,41.522641 Z M9.88887239,41.522641 C9.88887239,40.559641 9.65487239,38.723641 8.38587239,38.723641 C7.11687239,38.723641 6.88287239,40.559641 6.88287239,41.522641 C6.88287239,42.485641 7.11687239,44.330641 8.38587239,44.330641 C9.65487239,44.330641 9.88887239,42.485641 9.88887239,41.522641 Z M12.3484095,39.731641 L12.1864095,39.353641 L14.1304095,38.201641 L14.6974095,38.201641 L14.6974095,44.186641 L15.8944095,44.402641 L15.8944095,44.843641 L12.6094095,44.843641 L12.6094095,44.402641 L13.8064095,44.186641 L13.8064095,39.191641 C13.8154095,39.182641 12.3484095,39.731641 12.3484095,39.731641 Z M21.7164984,43.196641 C21.7164984,44.330641 20.6454984,44.996641 19.5204984,44.996641 C18.3504984,44.996641 17.3604984,44.366641 17.3604984,43.196641 C17.3604984,42.323641 18.1254984,41.693641 18.8004984,41.387641 C18.1074984,41.027641 17.5404984,40.586641 17.5404984,39.677641 C17.5404984,38.633641 18.4854984,38.048641 19.5204984,38.048641 C20.5734984,38.048641 21.5364984,38.597641 21.5364984,39.677641 C21.5364984,40.577641 20.9424984,41.009641 20.2494984,41.351641 C20.9694984,41.702641 21.7164984,42.251641 21.7164984,43.196641 Z M20.7534984,39.686641 C20.7534984,39.065641 20.1234984,38.705641 19.5204984,38.705641 C18.8904984,38.705641 18.3234984,39.029641 18.3234984,39.686641 C18.3234984,40.361641 19.0524984,40.766641 19.6104984,41.018641 C20.1864984,40.721641 20.7534984,40.415641 20.7534984,39.686641 Z M20.9334984,43.178641 C20.9334984,42.440641 20.0514984,42.017641 19.4664984,41.729641 C18.8454984,42.026641 18.1524984,42.413641 18.1524984,43.178641 C18.1524984,43.916641 18.8004984,44.339641 19.5204984,44.339641 C20.2404984,44.339641 20.9334984,43.925641 20.9334984,43.178641 Z" id="2018"></path>
                    </g>
                </g>
            </g>
        </g>
    </g>
</svg>