<?xml version="1.0" encoding="UTF-8"?>
<svg width="91px" height="34px" viewBox="0 0 91 34" version="1.1" xmlns="http://www.w3.org/2000/svg" xmlns:xlink="http://www.w3.org/1999/xlink">
    <!-- Generator: Sketch 49.3 (51167) - http://www.bohemiancoding.com/sketch -->
    <title>Page 1</title>
    <desc>Created with Sketch.</desc>
    <defs></defs>
    <g id="Page-1" stroke="none" stroke-width="1" fill="none" fill-rule="evenodd">
        <g id="main-mobile" transform="translate(-20.000000, -12.000000)">
            <g id="Group-58" transform="translate(20.000000, 12.000000)">
                <g id="Page-1">
                    <g id="Group-3" transform="translate(62.000000, 9.000000)" fill="#0E1C4F">
                        <path d="M9.34612105,10.3157214 C9.01206842,9.74500714 8.51417368,9.55011429 7.97691053,9.52765 C6.98343684,9.48636429 5.98764737,9.50457857 4.99301579,9.49911429 L4.90443684,9.49911429 L4.90443684,9.76443571 C4.90443684,11.1639 4.88706842,12.5639714 4.91312105,13.9622214 C4.92296316,14.4952929 4.99648947,15.0338286 5.10533158,15.5535429 C5.20896316,16.04715 5.46948947,16.4630429 5.98822632,16.7083286 L0.348121053,16.7083286 C1.10943684,16.3513286 1.32827895,15.6628286 1.43885789,14.9202929 C1.49559474,14.5384 1.50948947,14.1461857 1.51064737,13.7576143 C1.51527895,10.1967214 1.5147,6.63582857 1.51064737,3.07493571 C1.51064737,2.74465 1.49385789,2.41193571 1.4487,2.0859 C1.33406842,1.2529 1.00754211,0.559542857 0.164594737,0.186757143 L10.7894368,0.186757143 L10.7894368,4.47197143 C10.7159105,4.30622143 10.6661211,4.1939 10.6174895,4.08218571 C10.1717,3.06825714 9.39012105,2.52911429 8.35380526,2.47447143 C7.23527895,2.41497143 6.11212105,2.44897143 4.9907,2.44350714 L4.91601579,2.44411429 L4.91601579,7.22961429 L5.10359474,7.23022143 C5.90138421,7.23082857 6.69917368,7.23932857 7.49696316,7.22657857 C7.77833158,7.22172143 8.06259474,7.18165 8.34048947,7.12822143 C8.75617368,7.04868571 9.10354211,6.83982857 9.34612105,6.40997143 L9.34612105,10.3157214" id="Fill-11"></path>
                    </g>
                    <g id="Group-2" transform="translate(42.000000, 9.000000)" fill="#0E1C4F">
                        <path d="M14.5087276,2.99493103 C13.7425552,1.90810345 12.7325207,1.10793103 11.5061759,0.608482759 C10.3642449,0.142448276 9.19769316,0 8.01590005,0 C6.83352074,0 5.66696902,0.142448276 4.52445178,0.608482759 C3.29869316,1.10793103 2.28865867,1.90810345 1.52248626,2.99493103 C0.39110695,4.5987931 -0.00751374008,6.73375862 0.000106949577,8.31241379 C0.00714143234,9.89165517 0.156624191,10.7527931 0.619727639,11.9228621 C1.2200035,13.4376207 2.19427936,14.651069 3.59531385,15.5075172 C4.93303798,16.3246897 6.45893454,16.6166207 8.01590005,16.6166207 C9.57286557,16.6166207 11.0987621,16.3246897 12.4359001,15.5075172 C13.8369345,14.651069 14.8112104,13.4376207 15.4114863,11.9228621 C15.8745897,10.7527931 16.0240725,9.89165517 16.0316932,8.31241379 C16.0387276,6.73375862 15.6401069,4.5987931 14.5087276,2.99493103 M11.7113483,12.2147931 C10.934038,13.5425517 9.51893454,14.178 8.01590005,14.178 C6.51227936,14.178 5.09717592,13.5425517 4.31986557,12.2147931 C3.72955523,11.205931 3.44172764,9.54637931 3.46224488,8.48944828 C3.48276212,7.43134483 3.49741729,6.60127586 3.76355523,5.65572414 C4.1440035,4.30275862 4.9090035,3.23644828 6.27193454,2.69948276 C6.82648626,2.48082759 7.42265867,2.43393103 8.01590005,2.43393103 C8.60855523,2.43393103 9.20472764,2.48082759 9.75927936,2.69948276 C11.1227966,3.23644828 11.8872104,4.30275862 12.2676587,5.65572414 C12.5337966,6.60127586 12.5484518,7.43134483 12.568969,8.48944828 C12.5894863,9.54637931 12.3010725,11.205931 11.7113483,12.2147931" id="Fill-13"></path>
                    </g>
                    <g id="Group" transform="translate(77.000000, 9.000000)" fill="#0E1C4F">
                        <path d="M9.562,13.3771133 C9.16817391,13.8895419 8.61426087,14.1493991 8.00130435,14.1773276 C6.96226087,14.2246848 5.91895652,14.1900776 4.85069565,14.1900776 L4.85069565,9.13014906 L4.99191304,9.13014906 C5.894,9.14411334 6.79913043,9.11618477 7.69695652,9.18661334 C8.96121739,9.28618477 9.8846087,10.0554348 10.0288696,11.3875062 C10.1067826,12.1087919 10.0185217,12.7839348 9.562,13.3771133 Z M4.85191304,2.26154191 C5.04913043,2.26154191 5.2366087,2.25972048 5.42286957,2.26154191 C6.01086957,2.26761334 6.59886957,2.26214906 7.18565217,2.2840062 C8.24965217,2.32286334 9.02634783,2.92514906 9.22478261,3.95911334 C9.40008696,4.87164906 9.2406087,5.73561334 8.50408696,6.40104191 C8.13156522,6.7380062 7.6713913,6.87279191 7.18443478,6.88432763 C6.41565217,6.90193477 5.64626087,6.88857763 4.85191304,6.88857763 L4.85191304,2.26154191 Z M12.663913,9.16536334 C11.9687826,8.42889906 11.1129565,8.00511334 10.129913,7.78654191 C10.2303478,7.75132763 10.3313913,7.71793477 10.4306087,7.68089906 C10.5383478,7.64082763 10.6497391,7.60561334 10.752,7.55339906 C12.0503478,6.89161334 12.8026957,5.84368477 12.9603478,4.39504191 C13.118,2.94336334 12.5853913,1.77036334 11.4221739,0.902149055 C10.5054783,0.218506198 9.43234783,0.00297048406 8.30930435,0.00175619835 C5.60791304,-0.00127951594 2.90652174,0.000541912633 0.205130435,0.000541912633 L0,0.000541912633 C0.568521739,0.268899055 0.917304348,0.708470484 1.07191304,1.28039906 C1.18878261,1.7145062 1.28556522,2.16682763 1.29713043,2.61368477 C1.32756522,3.86136334 1.30991304,5.10964906 1.30991304,6.35793477 C1.30930435,8.87879191 1.33,11.4002562 1.29469565,13.9211133 C1.28069565,14.9010419 1.16930435,15.8906848 0.182,16.5208991 L0.418782609,16.5208991 C3.18591304,16.5208991 5.95426087,16.5239348 8.722,16.5196848 C9.93086957,16.5178633 11.0618261,16.2482919 12.0613043,15.5276133 C14.0913043,14.0631848 14.3828696,10.9886133 12.663913,9.16536334 Z" id="Fill-31"></path>
                    </g>
                    <g id="Group-4" fill="#C39114">
                        <path d="M26.5029404,16.9084386 C27.5557474,17.5872456 28.4761333,18.8512105 28.8912912,19.9606842 C29.0326596,20.3376667 29.145993,20.6919825 29.2342737,21.0838772 C29.3756421,21.7137719 29.4078526,22.3126491 29.3959228,22.9562632 C29.380414,23.8032807 29.2133965,24.5494912 29.0386246,25.3690702 C28.8692211,26.165386 28.6831158,27.0016667 28.7630456,27.8200526 L28.8638526,28.8645088 L27.819993,28.7631053 C27.001607,28.6831754 26.1653263,28.8692807 25.3690105,29.0386842 C24.5488351,29.2134561 23.8032211,29.3804737 22.9562035,29.3959825 C22.3125895,29.4073158 21.7137123,29.3757018 21.0832211,29.2343333 C20.6913263,29.1460526 20.337607,29.0327193 19.9606246,28.8919474 C18.8511509,28.476193 17.587186,27.555807 16.9083789,26.503 C16.2295719,27.555807 14.9650105,28.476193 13.8555368,28.8919474 C13.4797474,29.0327193 13.1248351,29.1460526 12.7335368,29.2343333 C12.1030456,29.3757018 11.5041684,29.4073158 10.8605544,29.3959825 C10.0135368,29.3804737 9.26792281,29.2134561 8.44715088,29.0386842 C7.65143158,28.8692807 6.81515088,28.6831754 5.99676491,28.7631053 L4.95230877,28.8645088 L5.05371228,27.8200526 C5.13304561,27.0016667 4.94753684,26.165386 4.77813333,25.3690702 C4.6033614,24.5494912 4.43634386,23.8032807 4.42083509,22.9562632 C4.40890526,22.3126491 4.44111579,21.7137719 4.58248421,21.0832807 C4.67076491,20.6919825 4.78350175,20.3376667 4.92487018,19.9606842 C5.34062456,18.8512105 6.26101053,17.5872456 7.31381754,16.9084386 C6.26101053,16.2296316 5.34062456,14.9650702 4.92487018,13.8555965 C4.78350175,13.4792105 4.67076491,13.1248947 4.58248421,12.7335965 C4.44111579,12.1031053 4.40890526,11.5042281 4.42083509,10.860614 C4.43634386,10.0135965 4.6033614,9.26798246 4.77813333,8.44780702 C4.94753684,7.65149123 5.13304561,6.81521053 5.05371228,5.99682456 L4.95230877,4.95236842 L5.99676491,5.05377193 C6.81515088,5.13370175 7.65143158,4.94759649 8.44715088,4.77819298 C9.26792281,4.60342105 10.0135368,4.43640351 10.8605544,4.42089474 C11.5041684,4.4095614 12.1030456,4.44117544 12.7335368,4.58254386 C13.1248351,4.67082456 13.4797474,4.78415789 13.8555368,4.92552632 C14.9650105,5.34068421 16.2295719,6.26107018 16.9083789,7.31387719 C17.587186,6.26107018 18.8511509,5.34068421 19.9606246,4.92552632 C20.337607,4.78415789 20.6919228,4.67022807 21.0832211,4.58254386 C21.7137123,4.44117544 22.3125895,4.4095614 22.9562035,4.42089474 C23.8032211,4.43640351 24.5488351,4.60342105 25.3690105,4.77819298 C26.1653263,4.94759649 27.001607,5.13370175 27.819993,5.05377193 L28.8638526,4.95236842 L28.7630456,5.99682456 C28.6831158,6.81521053 28.8692211,7.65149123 29.0386246,8.44780702 C29.2133965,9.26798246 29.380414,10.0135965 29.3959228,10.860614 C29.4078526,11.5042281 29.3756421,12.1031053 29.2342737,12.733 C29.145993,13.1248947 29.0326596,13.4792105 28.8912912,13.8555965 C28.4761333,14.9650702 27.5557474,16.2296316 26.5029404,16.9084386 M27.0248702,27.0249298 C27.0564842,26.3485088 27.1841333,25.687 27.3147649,25.0219123 C27.4728351,24.2184386 27.6923439,23.5605088 27.6959228,22.7242281 C27.6983088,22.2702982 27.6434316,21.775807 27.5283088,21.336193 C27.0737825,19.6039825 25.3540982,17.559807 23.5550807,17.1673158 L22.3674667,16.9084386 L23.5550807,16.6495614 C25.3540982,16.2576667 27.0737825,14.2128947 27.5283088,12.4806842 C27.6434316,12.0410702 27.6983088,11.5465789 27.6959228,11.0926491 C27.6923439,10.2563684 27.4728351,9.5984386 27.3147649,8.79496491 C27.1841333,8.12987719 27.0564842,7.46836842 27.0248702,6.79194737 C26.3478526,6.76033333 25.6869404,6.63268421 25.0218526,6.50205263 C24.2183789,6.34398246 23.5598526,6.12447368 22.7241684,6.12089474 C22.2702386,6.11850877 21.7757474,6.17338596 21.3361333,6.28850877 C19.6039228,6.74303509 17.5591509,8.4627193 17.1672561,10.2611404 L16.9083789,11.4487544 L16.6495018,10.2617368 C16.257607,8.4627193 14.2128351,6.74303509 12.4806246,6.28850877 C12.0410105,6.17338596 11.5465193,6.11850877 11.0925895,6.12089474 C10.2563088,6.12447368 9.59837895,6.34398246 8.79490526,6.50205263 C8.12981754,6.63268421 7.46830877,6.76033333 6.79188772,6.79194737 C6.76027368,7.46836842 6.63262456,8.12987719 6.50199298,8.79496491 C6.34332632,9.5984386 6.12441404,10.2563684 6.1202386,11.0926491 C6.11844912,11.5465789 6.17332632,12.0410702 6.28844912,12.4806842 C6.74297544,14.2128947 8.46265965,16.2576667 10.2610807,16.6495614 L11.4486947,16.9084386 L10.2610807,17.1673158 C8.46265965,17.559807 6.74297544,19.6039825 6.28844912,21.336193 C6.17332632,21.775807 6.11844912,22.2702982 6.1202386,22.7242281 C6.12441404,23.5605088 6.34332632,24.2184386 6.50199298,25.0219123 C6.63262456,25.687 6.76027368,26.3485088 6.79188772,27.0249298 C7.46830877,27.0565439 8.12981754,27.184193 8.79490526,27.3148246 C9.59837895,27.4728947 10.2563088,27.6924035 11.0925895,27.6965789 C11.5465193,27.6983684 12.0410105,27.6434912 12.4806246,27.5283684 C14.2128351,27.0738421 16.257607,25.3541579 16.6495018,23.5551404 L16.9083789,22.3681228 L17.1672561,23.5557368 C17.5591509,25.3541579 19.6039228,27.0738421 21.3361333,27.5283684 C21.7757474,27.6434912 22.2702386,27.6983684 22.7241684,27.6965789 C23.5598526,27.6924035 24.2183789,27.4728947 25.0218526,27.3148246 C25.6869404,27.184193 26.3478526,27.0565439 27.0248702,27.0249298" id="Fill-33"></path>
                        <path d="M23.6926316,10.1239474 C24.9172281,9.85970175 26.4621404,10.1030702 27.54,10.593386 C27.9062456,10.759807 28.2372982,10.9304035 28.5761053,11.1445439 C29.1218947,11.4905088 29.5680702,11.8913509 30.0148421,12.3548246 C30.6029825,12.9644386 31.0121754,13.6104386 31.4684912,14.3137018 C31.9116842,14.9960877 32.3715789,15.7190351 33.0062456,16.2415614 L33.8168772,16.9090351 L33.0062456,17.5747193 C32.3709825,18.0972456 31.9116842,18.820193 31.4684912,19.5031754 C31.0121754,20.2064386 30.6029825,20.8518421 30.0148421,21.4620526 C29.5680702,21.9255263 29.1218947,22.3263684 28.5761053,22.6723333 C28.2372982,22.8864737 27.9062456,23.0570702 27.54,23.2234912 C26.4621404,23.713807 24.9172281,23.9571754 23.6926316,23.6929298 C23.9568772,24.9175263 23.7135088,26.4618421 23.223193,27.5402982 C23.0567719,27.9065439 22.8861754,28.237 22.6720351,28.5764035 C22.3260702,29.122193 21.9252281,29.5677719 21.4617544,30.0151404 C20.8521404,30.6032807 20.2067368,31.0118772 19.5034737,31.4687895 C18.8204912,31.9119825 18.0975439,32.3712807 17.5750175,33.0065439 L16.9081404,33.8165789 L16.2412632,33.0065439 C15.7193333,32.3718772 14.996386,31.9119825 14.3134035,31.4687895 C13.6101404,31.0118772 12.9647368,30.6032807 12.3545263,30.0151404 C11.8910526,29.5677719 11.4902105,29.122193 11.1448421,28.5764035 C10.9301053,28.237 10.7595088,27.9065439 10.5936842,27.5402982 C10.1027719,26.4618421 9.86,24.9175263 10.1236491,23.6929298 C8.89964912,23.9571754 7.35473684,23.713807 6.2762807,23.2234912 C5.91003509,23.0570702 5.57957895,22.8864737 5.24077193,22.6717368 C4.69438596,22.3263684 4.24880702,21.9255263 3.80203509,21.4620526 C3.21389474,20.8518421 2.80470175,20.2064386 2.34778947,19.5031754 C1.90519298,18.820193 1.44529825,18.0972456 0.810035088,17.5753158 L0,16.9084386 L0.810035088,16.2415614 C1.44529825,15.7196316 1.90519298,14.9960877 2.34778947,14.3137018 C2.80470175,13.6104386 3.21389474,12.9644386 3.80203509,12.3548246 C4.24880702,11.8913509 4.69438596,11.4905088 5.24017544,11.1445439 C5.57957895,10.9304035 5.91063158,10.759807 6.2762807,10.593386 C7.35473684,10.1030702 8.89964912,9.85970175 10.1236491,10.1239474 C9.86,8.89935088 10.1027719,7.35503509 10.5936842,6.27657895 C10.7595088,5.91092982 10.9301053,5.5792807 11.1448421,5.24047368 C11.490807,4.69468421 11.8916491,4.24850877 12.3545263,3.80173684 C12.9647368,3.21359649 13.6101404,2.805 14.3134035,2.34808772 C14.996386,1.90489474 15.7193333,1.44559649 16.2418596,0.810333333 L16.9081404,-0.000298245614 L17.5750175,0.810333333 C18.0975439,1.445 18.8204912,1.90489474 19.5034737,2.34808772 C20.2067368,2.80440351 20.8521404,3.21419298 21.4617544,3.80173684 C21.9252281,4.24850877 22.3254737,4.69468421 22.6720351,5.24047368 C22.8861754,5.5792807 23.0567719,5.91092982 23.223193,6.27657895 C23.7135088,7.35503509 23.9568772,8.89935088 23.6926316,10.1239474 M31.2155789,16.9084386 C30.7592632,16.4079825 30.3816842,15.8502632 30.0041053,15.2865789 C29.5477895,14.6071754 29.2370175,13.9868246 28.6488772,13.3927193 C28.3291579,13.0700175 27.9408421,12.7586491 27.5489474,12.530193 C26.0028421,11.6265088 23.3407018,11.3968596 21.7910175,12.3912105 L20.7686316,13.0479474 L21.4253684,12.0255614 C22.4203158,10.4758772 22.1900702,7.81373684 21.2869825,6.26822807 C21.0579298,5.87573684 20.7465614,5.48742105 20.4238596,5.16770175 C19.8297544,4.5795614 19.2094035,4.26878947 18.53,3.81307018 C17.9663158,3.43489474 17.409193,3.05731579 16.9081404,2.601 C16.4076842,3.05791228 15.8499649,3.43549123 15.2868772,3.81307018 C14.6068772,4.26878947 13.9865263,4.5795614 13.3924211,5.16770175 C13.0697193,5.48742105 12.7589474,5.87573684 12.5298947,6.26822807 C11.6262105,7.81373684 11.3965614,10.4758772 12.3915088,12.0255614 L13.0476491,13.0479474 L12.0252632,12.3912105 C10.4761754,11.3962632 7.81403509,11.6265088 6.26852632,12.530193 C5.87603509,12.7592456 5.48712281,13.0700175 5.16740351,13.3927193 C4.57985965,13.9868246 4.26908772,14.6071754 3.81277193,15.2865789 C3.43519298,15.8502632 3.05761404,16.407386 2.60129825,16.9084386 C3.05761404,17.4088947 3.43519298,17.966614 3.81277193,18.5297018 C4.26908772,19.2097018 4.57926316,19.8300526 5.16740351,20.4241579 C5.48712281,20.7468596 5.87603509,21.0576316 6.26852632,21.2866842 C7.81403509,22.1903684 10.4761754,22.4200175 12.0252632,21.4256667 L13.0476491,20.7689298 L12.3915088,21.7913158 C11.3965614,23.341 11.6262105,26.0025439 12.5298947,27.5486491 C12.7589474,27.9411404 13.0697193,28.3294561 13.3924211,28.6491754 C13.9865263,29.2373158 14.6068772,29.5480877 15.2868772,30.003807 C15.8499649,30.3819825 16.4076842,30.7595614 16.9081404,31.2152807 C17.409193,30.7589649 17.9663158,30.3819825 18.53,30.003807 C19.21,29.5480877 19.8303509,29.2373158 20.4238596,28.6491754 C20.7465614,28.3294561 21.0579298,27.9411404 21.2869825,27.5486491 C22.1900702,26.0025439 22.4203158,23.341 21.4253684,21.7913158 L20.7692281,20.7689298 L21.791614,21.4256667 C23.3407018,22.4200175 26.0028421,22.1903684 27.5489474,21.2866842 C27.9408421,21.0576316 28.3291579,20.7468596 28.6494737,20.4241579 C29.2370175,19.8300526 29.5477895,19.2097018 30.0041053,18.5302982 C30.3816842,17.966614 30.7592632,17.4088947 31.2155789,16.9084386" id="Fill-35"></path>
                    </g>
                </g>
            </g>
        </g>
    </g>
</svg>