<?xml version="1.0" encoding="UTF-8"?>
<svg width="29px" height="29px" viewBox="0 0 29 29" version="1.1" xmlns="http://www.w3.org/2000/svg" xmlns:xlink="http://www.w3.org/1999/xlink">
    <!-- Generator: Sketch 49.3 (51167) - http://www.bohemiancoding.com/sketch -->
    <title>ok</title>
    <desc>Created with Sketch.</desc>
    <defs></defs>
    <g id="Page-1" stroke="none" stroke-width="1" fill="none" fill-rule="evenodd">
        <g id="main-mobile" transform="translate(-272.000000, -4544.000000)">
            <g id="Group-11" transform="translate(178.000000, 4544.000000)">
                <g id="ok" transform="translate(94.000000, 0.000000)">
                    <rect id="Rectangle" x="0" y="0" width="28.4912612" height="29"></rect>
                    <ellipse id="Oval" fill="#F58221" cx="14.2456306" cy="14.5" rx="14.2456306" ry="14.5"></ellipse>
                    <path d="M14.235369,8.98318507 C15.1575957,8.98318507 15.9077507,9.74104442 15.9077507,10.6730429 C15.9077507,11.6043087 15.1575957,12.3626565 14.235369,12.3626565 C13.3138674,12.3626565 12.5629873,11.6043087 12.5629873,10.6730429 C12.5629873,9.74104442 13.3138674,8.98318507 14.235369,8.98318507 L14.235369,8.98318507 Z M14.235369,14.7539555 C12.007863,14.7539555 10.1962773,12.9234187 10.1962773,10.6730429 C10.1962773,8.42193441 12.007863,6.59090909 14.235369,6.59090909 C16.4633584,6.59090909 18.2744608,8.42193441 18.2744608,10.6730429 C18.2744608,12.9234187 16.4633584,14.7539555 14.235369,14.7539555 Z M15.8798973,18.0856535 L18.1378542,20.3677798 C18.6004176,20.8342675 18.6004176,21.5918826 18.1378542,22.0588588 C17.6757742,22.525835 16.9268275,22.525835 16.4652309,22.0588588 L14.2452167,19.8162985 L12.0271359,22.0588588 C11.7958542,22.2921026 11.4927955,22.4088467 11.1897367,22.4088467 C10.8871613,22.4088467 10.5845859,22.2921026 10.3533042,22.0588588 C9.89122418,21.5918826 9.89122418,20.8347559 10.3528209,20.3677798 L12.6110195,18.0856535 C11.7888457,17.8963718 10.9959144,17.5671439 10.2655767,17.1040754 C9.71286903,16.7518894 9.54683923,16.0140573 9.89509096,15.4550048 C10.242376,14.8952195 10.9727138,14.7266978 11.5263881,15.0788838 C13.1799192,16.1300686 15.3100308,16.1303129 16.9645286,15.0788838 C17.518203,14.7266978 18.2482991,14.8952195 18.5963091,15.4550048 C18.9445609,16.0135688 18.7780477,16.7518894 18.2253401,17.1040754 C17.4950023,17.5676323 16.702071,17.8963718 15.8798973,18.0856535 Z" id="Shape" fill="#FFFFFF"></path>
                </g>
            </g>
        </g>
    </g>
</svg>