<?xml version="1.0" encoding="UTF-8"?>
<svg width="20px" height="20px" viewBox="0 0 20 20" version="1.1" xmlns="http://www.w3.org/2000/svg" xmlns:xlink="http://www.w3.org/1999/xlink">
    <!-- Generator: Sketch 49.3 (51167) - http://www.bohemiancoding.com/sketch -->
    <title>Path</title>
    <desc>Created with Sketch.</desc>
    <defs></defs>
    <g id="Page-1" stroke="none" stroke-width="1" fill="none" fill-rule="evenodd">
        <g id="main-mobile" transform="translate(-25.000000, -4607.000000)" stroke="#0E1C4F" stroke-width="1.5">
            <g id="Group-60" transform="translate(26.000000, 4604.000000)">
                <path d="M17.176807,19.30005 C16.951807,20.27505 16.205807,20.71005 15.370807,21.04105 C14.755807,21.28505 14.106807,21.38505 13.627807,21.37405 C10.269807,21.86305 2.31780701,18.39805 0.272807011,9.79905001 C-0.100192989,8.44505001 -0.123192989,7.10905001 0.407807011,5.77405001 C0.871807011,4.60805001 1.72280701,4.06105001 2.94380701,4.01705001 C2.99280701,4.01505001 3.04080701,4.01405001 3.08980701,4.01205001 C3.83380701,3.97405001 3.81880701,3.98605001 4.09280701,4.66705001 C4.57280701,5.86005001 5.07980701,7.04105001 5.57380701,8.22905001 C5.64280701,8.39305001 5.68680701,8.56705001 5.76380701,8.72705001 C5.89480701,8.99905001 5.82580701,9.23405001 5.64380701,9.44305001 C5.23480701,9.91405001 4.82880701,10.38905 4.39680701,10.83805 C4.21680701,11.02405 4.17080701,11.19505 4.30680701,11.39505 C4.71980701,12.00405 5.13680701,12.61105 5.56880701,13.20705 C6.59580701,14.62705 7.94580701,15.70205 9.35980701,16.70405 C9.56380701,16.84805 9.78680701,16.96605 10.007807,17.08405 C10.182807,17.17805 10.325807,17.14305 10.481807,16.99505 C10.939807,16.56005 11.415807,16.14305 11.892807,15.72705 C12.097807,15.54805 12.324807,15.47905 12.604807,15.59705 C13.683807,16.05405 14.768807,16.49905 15.853807,16.94305 C16.250807,17.10505 16.657807,17.24105 17.050807,17.41105 C17.149807,17.45405 17.264807,17.56705 17.287807,17.66705 C17.411807,18.21905 17.301807,18.76005 17.176807,19.30005" id="Path"></path>
            </g>
        </g>
    </g>
</svg>