<?xml version="1.0" encoding="UTF-8"?>
<svg width="20px" height="21px" viewBox="0 0 20 21" version="1.1" xmlns="http://www.w3.org/2000/svg" xmlns:xlink="http://www.w3.org/1999/xlink">
    <!-- Generator: Sketch 49.3 (51167) - http://www.bohemiancoding.com/sketch -->
    <title>Group 26</title>
    <desc>Created with Sketch.</desc>
    <defs></defs>
    <g id="Page-1" stroke="none" stroke-width="1" fill="none" fill-rule="evenodd">
        <g id="main1" transform="translate(-1137.000000, -2871.000000)" stroke="#C39114" stroke-width="1.5">
            <g id="Group-7" transform="translate(867.000000, 2839.000000)">
                <g id="Group-26" transform="translate(270.000000, 32.000000)">
                    <g id="Group-8">
                        <path d="M18.6438357,6.6981345 C17.2972698,3.16873949 13.887094,0.75 10,0.75 C5.1829732,0.75 1.2259402,4.43207116 0.789890697,9.13522379" id="Oval-7"></path>
                        <path d="M19.25,3.60128121 L15.7366265,6.52909244 L19.25,7.11465468 L19.25,3.60128121 Z" id="Path-5"></path>
                    </g>
                    <g id="Group-8" transform="translate(10.000000, 16.000000) scale(-1, -1) translate(-10.000000, -16.000000) translate(0.000000, 11.000000)">
                        <path d="M18.6438357,6.6981345 C17.2972698,3.16873949 13.887094,0.75 10,0.75 C5.1829732,0.75 1.2259402,4.43207116 0.789890697,9.13522379" id="Oval-7"></path>
                        <path d="M19.25,3.60128121 L15.7366265,6.52909244 L19.25,7.11465468 L19.25,3.60128121 Z" id="Path-5"></path>
                    </g>
                </g>
            </g>
        </g>
    </g>
</svg>