<?xml version="1.0" encoding="UTF-8"?>
<svg width="19px" height="20px" viewBox="0 0 19 20" version="1.1" xmlns="http://www.w3.org/2000/svg" xmlns:xlink="http://www.w3.org/1999/xlink">
    <!-- Generator: Sketch 49.3 (51167) - http://www.bohemiancoding.com/sketch -->
    <title>Group 27</title>
    <desc>Created with Sketch.</desc>
    <defs></defs>
    <g id="Page-1" stroke="none" stroke-width="1" fill="none" fill-rule="evenodd" opacity="0.5">
        <g id="main1" transform="translate(-1288.000000, -13.000000)" stroke="#0E1C4F" stroke-width="1.5">
            <g id="Group" transform="translate(1288.000000, 13.000000)">
                <g id="Group-27">
                    <path d="M13.4787758,4.83140399 C13.4785482,2.64118328 11.7075627,0.866403724 9.52380822,0.866404444 C7.33991403,0.866405165 5.56884285,2.64141294 5.56884321,4.8318269 C5.56884357,7.02224085 7.33991533,8.79724804 9.5229652,8.79724852 C11.7061706,8.79479075 13.4760966,7.02107053 13.4787758,4.831404 Z M13.4787758,4.831404 C13.478776,4.8312639 13.4787762,4.8311238 13.4787763,4.8309837 L13.4787758,4.83182428 C13.4787758,4.83168418 13.4787758,4.83154409 13.4787758,4.83140399 Z" id="Path"></path>
                    <path d="M0.839840884,18.6273383 C0.839467203,18.6273381 0.839093177,18.6273381 0.838718803,18.6273383 L0.839840898,18.6273383 Z M1.50375909,18.6273383 L17.54386,18.6273384 C17.2185175,14.4722255 13.7517658,11.2026402 9.52380952,11.2026402 C5.2958533,11.2026402 1.82910159,14.4722254 1.50375909,18.6273383 Z M18.2085903,18.6273384 L18.2093366,18.6273384 C18.2090878,18.6273383 18.208839,18.6273383 18.2085903,18.6273384 Z M17.5688095,19.266706 C17.5688095,19.2668656 17.5688095,19.2670251 17.5688096,19.2671847 C17.5688096,19.2670252 17.5688096,19.2668656 17.5688096,19.266706 Z" id="Path"></path>
                </g>
            </g>
        </g>
    </g>
</svg>