<?xml version="1.0" encoding="UTF-8"?>
<svg width="29px" height="29px" viewBox="0 0 29 29" version="1.1" xmlns="http://www.w3.org/2000/svg" xmlns:xlink="http://www.w3.org/1999/xlink">
    <!-- Generator: Sketch 49.3 (51167) - http://www.bohemiancoding.com/sketch -->
    <title>vk</title>
    <desc>Created with Sketch.</desc>
    <defs></defs>
    <g id="Page-1" stroke="none" stroke-width="1" fill="none" fill-rule="evenodd">
        <g id="main-mobile" transform="translate(-225.000000, -4544.000000)">
            <g id="Group-11" transform="translate(178.000000, 4544.000000)">
                <g id="vk" transform="translate(47.000000, 0.000000)">
                    <rect id="Rectangle" x="0" y="0" width="29" height="29"></rect>
                    <circle id="Oval" fill="#4B75A3" cx="14.5" cy="14.5" r="14.5"></circle>
                    <path d="M14.9785247,19.7274359 C14.9785247,19.7274359 15.2759033,19.6950019 15.4282192,19.5344142 C15.5676406,19.3872747 15.5628051,19.1096082 15.5628051,19.1096082 C15.5628051,19.1096082 15.5442694,17.8130401 16.1575623,17.6216006 C16.7619903,17.4333253 17.5380759,18.8754507 18.3617098,19.4299926 C18.9838677,19.8492611 19.4561275,19.7574966 19.4561275,19.7574966 L21.6570514,19.7274359 C21.6570514,19.7274359 22.8078823,19.6578215 22.2622853,18.7694469 C22.2171547,18.6966683 21.9439532,18.1120656 20.6263001,16.9112173 C19.2457865,15.6542029 19.4311445,15.8575086 21.0929186,13.68285 C22.105134,12.3585944 22.5096978,11.5501182 22.3831709,11.2044194 C22.2630912,10.8737511 21.5184359,10.9615601 21.5184359,10.9615601 L19.0410869,10.9765905 C19.0410869,10.9765905 18.8573408,10.9520673 18.721143,11.0319656 C18.5881689,11.1102818 18.5019371,11.2930196 18.5019371,11.2930196 C18.5019371,11.2930196 18.1102678,12.3174586 17.5872361,13.1892206 C16.4839534,15.0276734 16.0431239,15.1249754 15.8626014,15.0110609 C15.4427254,14.7444694 15.547493,13.9415307 15.547493,13.3711673 C15.547493,11.5888807 15.8231121,10.8460635 15.0115668,10.6538329 C14.7423948,10.589756 14.5441425,10.5478292 13.8550945,10.5407095 C12.9710178,10.5320077 12.2231389,10.5438738 11.7992333,10.7471795 C11.5171669,10.8824529 11.2995729,11.1846426 11.432547,11.2020462 C11.5961455,11.2234052 11.9668614,11.3001392 12.163502,11.5627753 C12.4173617,11.9021455 12.4084968,12.6631574 12.4084968,12.6631574 C12.4084968,12.6631574 12.5543654,14.7610819 12.0675994,15.0213448 C11.7339551,15.2001273 11.2762016,14.8354428 10.2921928,13.1670706 C9.7885028,12.3127122 9.4081161,11.3681715 9.4081161,11.3681715 C9.4081161,11.3681715 9.33477884,11.1917623 9.20341648,11.0968336 C9.04465339,10.982128 8.82302978,10.9465298 8.82302978,10.9465298 L6.46898412,10.9615601 C6.46898412,10.9615601 6.11519225,10.971053 5.98544171,11.1221479 C5.87019743,11.2558392 5.97657676,11.5335056 5.97657676,11.5335056 C5.97657676,11.5335056 7.81967927,15.7665353 9.90697069,17.9000581 C11.8209928,19.8555896 13.99371,19.7274359 13.99371,19.7274359 L14.9785247,19.7274359 Z" id="Shape" fill="#FFFFFF"></path>
                </g>
            </g>
        </g>
    </g>
</svg>